# xmcd CD database file
#
# Track frame offsets:
#	183
#	26443
#	54878
#	83735
#	109773
#	131428
#	151725
#	174908
#	193553
#
# Disc length: 2806 seconds
#
# Revision: 2
# Processed by: cddbd v1.5.1PL0 Copyright (c) Steve Scherf et al.
# Submitted via: CDex 1.51
#
DISCID=5d0af409
DTITLE=Jean-Michel Kajdan - Blue Scales
DYEAR=1990
DGENRE=Rock
TTITLE0=Elliot
TTITLE1=S-A-V
TTITLE2=Blues Grises
TTITLE3=Hot Shuffle
TTITLE4=Take a seat
TTITLE5=Franck (It's so heavy!)
TTITLE6=Reflexion
TTITLE7=Limousine
TTITLE8=Hymne à l'amour*
EXTD=YEAR: 1990
EXTT0=
EXTT1=
EXTT2=
EXTT3=
EXTT4=
EXTT5=
EXTT6=
EXTT7=
EXTT8=
PLAYORDER=
